<svg width="84" height="58" viewBox="0 0 84 58" fill="none" xmlns="http://www.w3.org/2000/svg">
<rect x="0.5" y="0.5" width="83" height="57" rx="3.5" fill="white" stroke="#F3F3F3"/>
<path fill-rule="evenodd" clip-rule="evenodd" d="M62.1333 39.165V35.7944H61.321V37.7495C61.0411 37.389 60.6051 37.1852 60.1493 37.2021C59.0709 37.2021 58.1966 38.0774 58.1966 39.1571C58.1966 40.2369 59.0709 41.1122 60.1493 41.1122C60.6051 41.129 61.0411 40.9253 61.321 40.5648V41.0183H62.1333V39.165ZM37.9039 37.2959H39.2317V38.0271H37.9117V39.7476C37.9117 40.1229 38.0601 40.3732 38.4506 40.3732C38.7043 40.354 38.9488 40.2706 39.1614 40.1307L39.3957 40.8267C39.0912 41.017 38.7393 41.1173 38.3803 41.1161C37.4196 41.1161 37.0837 40.6 37.0837 39.7319V38.0271H36.326V37.2959H37.0837V36.162H37.9039V37.2959ZM27.1013 41.0457V38.6996C27.129 38.3005 26.9837 37.9088 26.7026 37.6243C26.4216 37.3399 26.0318 37.1904 25.6329 37.2138C25.1072 37.1793 24.6043 37.434 24.3207 37.8785C24.062 37.4473 23.5885 37.1922 23.0865 37.2138C22.6495 37.1917 22.2334 37.4029 21.993 37.769V37.3076H21.1807V41.0457H22.0008V38.9734C21.9655 38.7145 22.0474 38.4534 22.2242 38.2613C22.401 38.0692 22.6542 37.9661 22.9147 37.9802C23.4536 37.9802 23.727 38.3321 23.727 38.9655V41.0457H24.5472V38.9734C24.5133 38.7148 24.5957 38.4546 24.7722 38.2628C24.9486 38.0711 25.2009 37.9675 25.4611 37.9802C26.0156 37.9802 26.2812 38.3321 26.2812 38.9655V41.0457H27.1013ZM59.3136 48.7565H58.5676L58.5716 44.3615H58.017V51.3997H58.6028V49.2452H59.3487L61.3015 51.3997H62.0084L59.7822 48.9715L61.9693 46.8014H61.2663L59.3136 48.7565ZM42.5593 47.2198C42.4344 47.3341 42.3265 47.4658 42.239 47.6108L42.2195 44.3849H41.6649V51.4232H42.2195V48.8034C42.2176 48.5914 42.2588 48.3812 42.3406 48.1856C42.4164 48.0036 42.528 47.8388 42.6686 47.7007C42.8086 47.5645 42.9746 47.4581 43.1568 47.3879C43.3487 47.314 43.5527 47.2769 43.7582 47.2784C43.971 47.2743 44.1827 47.3088 44.3831 47.3801C44.558 47.4436 44.7167 47.5451 44.8479 47.6773C44.9786 47.8112 45.0773 47.9729 45.1369 48.1504C45.2045 48.3519 45.2375 48.5634 45.2345 48.776V51.4232H45.793V48.604C45.7979 48.3366 45.7501 48.0708 45.6524 47.8219C45.5666 47.6014 45.4332 47.4024 45.2619 47.2393C45.0845 47.0764 44.8759 46.9514 44.6487 46.8718C44.3978 46.7837 44.1335 46.74 43.8676 46.7427C43.71 46.7429 43.5529 46.7599 43.3989 46.7936C43.2436 46.8277 43.0928 46.8802 42.9498 46.95C42.8078 47.0214 42.6763 47.1122 42.5593 47.2198ZM37.4654 44.4827C37.7472 44.483 38.028 44.5158 38.3023 44.5805C38.573 44.6425 38.8353 44.737 39.0834 44.862C39.3175 44.9809 39.5353 45.1294 39.7317 45.3038C39.924 45.4748 40.091 45.6723 40.2277 45.8903L39.7317 46.2227C39.6144 46.0433 39.4739 45.8803 39.3138 45.7378C39.1527 45.5937 38.9743 45.4702 38.7827 45.3703C38.5846 45.2682 38.3747 45.1907 38.1578 45.1396C37.9314 45.0849 37.6994 45.0574 37.4665 45.0575C37.0777 45.0542 36.6918 45.1259 36.3301 45.2686C35.9883 45.4026 35.6773 45.6048 35.4162 45.863C35.1535 46.1267 34.9463 46.4405 34.8069 46.7858C34.5103 47.5531 34.5103 48.4036 34.8069 49.1709C34.9462 49.5163 35.1534 49.8301 35.4162 50.0937C35.6773 50.3519 35.9883 50.5541 36.3301 50.6881C36.6918 50.8308 37.0777 50.9025 37.4665 50.8992C37.6979 50.8999 37.9286 50.8737 38.1539 50.821C38.5885 50.7255 38.9916 50.521 39.3255 50.2267C39.4866 50.0837 39.6272 49.9193 39.7434 49.7379L40.2316 50.0937C40.0896 50.3066 39.9202 50.4999 39.7278 50.6685C39.5319 50.8394 39.3154 50.9852 39.0834 51.1025C38.843 51.2255 38.5886 51.3187 38.3257 51.3801C37.5827 51.5496 36.806 51.4924 36.0957 51.2159C35.682 51.0521 35.305 50.8075 34.9866 50.4965C34.6696 50.1811 34.4198 49.8047 34.2523 49.3899C33.8979 48.481 33.8979 47.4718 34.2523 46.5629C34.4198 46.1481 34.6696 45.7717 34.9866 45.4563C35.305 45.1452 35.682 44.9007 36.0957 44.7369C36.532 44.5657 36.9969 44.4794 37.4654 44.4827ZM37.4654 44.4827L37.4509 44.4827H37.4665L37.4654 44.4827ZM26.4609 44.5609C26.9836 44.5531 27.5038 44.6337 27.9997 44.7994C28.4337 44.943 28.8328 45.1761 29.1713 45.4837C29.4937 45.7847 29.7457 46.1532 29.9094 46.5629C30.2543 47.4776 30.2543 48.4869 29.9094 49.4016C29.7458 49.8114 29.4938 50.1799 29.1713 50.4808C28.8328 50.7884 28.4337 51.0215 27.9997 51.1651C27.5038 51.3308 26.9836 51.4114 26.4609 51.4036H23.9653V44.5609H26.4609ZM21.3213 51.4036H21.9188V44.5609H21.3213V51.4036ZM62.7191 51.1729H62.6332V51.4036H62.5903V51.1729H62.5043V51.1299H62.723L62.7191 51.1729ZM63.0551 51.4036H63.0121V51.1807L62.934 51.3762H62.8871L62.809 51.1807V51.4036H62.7661V51.1299H62.8325L62.9106 51.3254L62.9887 51.1299H63.0551V51.4036ZM24.5629 50.8366V45.1279L26.4648 45.1357C26.9116 45.1279 27.3565 45.1953 27.781 45.3351C28.1387 45.4555 28.4663 45.6516 28.7417 45.9099C29.0037 46.1627 29.2053 46.4715 29.3314 46.8131C29.596 47.5727 29.596 48.3996 29.3314 49.1592C29.2055 49.4998 29.0038 49.8074 28.7417 50.0585C28.4656 50.3159 28.1382 50.5118 27.781 50.6333C27.3557 50.7759 26.9093 50.8446 26.4609 50.8366H24.5629ZM49.4405 46.7427C49.7332 46.7399 50.0232 46.7985 50.2919 46.9148C50.5496 47.0274 50.7811 47.1925 50.9715 47.3996C51.1683 47.6161 51.3221 47.8683 51.4245 48.1426C51.5382 48.445 51.5965 48.7656 51.5963 49.0888V49.21V49.3195H47.7455C47.7606 49.5659 47.8215 49.8072 47.9252 50.0312C48.0191 50.2325 48.1518 50.4132 48.3157 50.5629C48.4761 50.7074 48.6632 50.819 48.8664 50.8914C49.0781 50.9674 49.3015 51.0058 49.5264 51.0048C49.8235 51.0098 50.1181 50.9497 50.3895 50.8288C50.6449 50.7098 50.8775 50.5471 51.0769 50.3479L51.3737 50.7389C51.2387 50.8768 51.0894 51 50.9285 51.1064C50.7825 51.2012 50.6267 51.2799 50.4637 51.341C50.3084 51.3985 50.1474 51.4392 49.9834 51.4623C49.8203 51.4852 49.6559 51.497 49.4913 51.4974C49.1745 51.5012 48.86 51.4427 48.5657 51.3254C48.2917 51.2155 48.0431 51.0505 47.8354 50.8405C47.6274 50.6267 47.4652 50.3726 47.3589 50.0937C47.2416 49.7868 47.1833 49.4604 47.1871 49.1318C47.1833 48.8058 47.2417 48.482 47.3589 48.1778C47.4614 47.8939 47.6194 47.6334 47.8237 47.4114C48.0284 47.1996 48.2743 47.0319 48.5462 46.9187C48.8335 46.7947 49.1432 46.7309 49.4561 46.731L49.4405 46.7427ZM48.8001 47.3566C49.0036 47.2746 49.2213 47.2335 49.4406 47.2354C49.8486 47.2327 50.2409 47.3931 50.5302 47.6812C50.6753 47.8263 50.7919 47.9974 50.8739 48.1856C50.9638 48.3926 51.018 48.6134 51.034 48.8386H47.7495C47.773 48.615 47.8337 48.3969 47.9292 48.1934C48.0176 48.0049 48.1393 47.834 48.2885 47.689C48.4364 47.5466 48.61 47.4338 48.8001 47.3566ZM55.002 46.7427C55.3274 46.7398 55.6501 46.8023 55.951 46.9265C56.2368 47.0447 56.4919 47.2266 56.697 47.4583L56.3377 47.8493C56.1645 47.6741 55.9606 47.5323 55.7362 47.4309C55.5009 47.3291 55.2466 47.2785 54.9903 47.2823C54.7501 47.2812 54.5122 47.3291 54.2912 47.4231C54.0795 47.5144 53.8883 47.6474 53.7288 47.8141C53.5605 47.9812 53.4276 48.1808 53.3383 48.4006C53.1591 48.8783 53.1591 49.4049 53.3383 49.8826C53.5059 50.3191 53.8445 50.6681 54.2756 50.8484C54.4965 50.9427 54.7345 50.9906 54.9747 50.9891C55.2342 50.992 55.4914 50.9387 55.7284 50.8327C55.9543 50.7316 56.1606 50.5913 56.3377 50.4183L56.6853 50.8093C56.4792 51.0399 56.2244 51.2215 55.9393 51.341C55.6398 51.4652 55.3184 51.5277 54.9942 51.5248C54.669 51.5287 54.3464 51.4676 54.0452 51.3449C53.4816 51.1156 53.0368 50.6647 52.8149 50.0976C52.584 49.4907 52.584 48.8199 52.8149 48.2129C53.0356 47.6441 53.4806 47.1915 54.0452 46.9617C54.3475 46.8194 54.6759 46.7409 55.0098 46.731L55.002 46.7427ZM46.1601 37.2021C45.7566 37.1902 45.379 37.4002 45.1759 37.7495V37.2959H44.3714V41.034H45.1837V38.9382C45.1837 38.3204 45.4493 37.9763 45.9648 37.9763C46.1385 37.9739 46.311 38.0058 46.4725 38.0701L46.7224 37.2881C46.5369 37.2217 46.3415 37.1873 46.1444 37.1864L46.1601 37.2021ZM34.1625 37.2021C34.6972 37.1836 35.2258 37.3194 35.6857 37.5931L35.3264 38.25C34.9696 38.0445 34.5662 37.9341 34.1547 37.9294C33.7095 37.9294 33.4439 38.117 33.4439 38.3673C33.4439 38.6175 33.7251 38.6879 34.0766 38.7348L34.4672 38.7896C35.2795 38.9069 35.7716 39.1962 35.7716 39.9079C35.7716 40.6195 35.1467 41.1278 34.0688 41.1278C33.4919 41.1437 32.9251 40.9738 32.4519 40.643L32.8425 40.0095C33.2009 40.2757 33.6383 40.4135 34.0844 40.4005C34.639 40.4005 34.9358 40.2363 34.9358 39.947C34.9358 39.7358 34.7249 39.6185 34.2797 39.556L33.8892 39.5012C33.0534 39.3839 32.6004 39.0085 32.6004 38.3986C32.6004 37.6556 33.2174 37.2021 34.1625 37.2021ZM57.4429 37.2021C57.0395 37.1902 56.6618 37.4002 56.4588 37.7495V37.2959H55.6542V41.034H56.4666V38.9382C56.4666 38.3204 56.7321 37.9763 57.2477 37.9763C57.4214 37.9739 57.5939 38.0058 57.7554 38.0701L58.0053 37.2881C57.8198 37.2217 57.6243 37.1873 57.4273 37.1864L57.4429 37.2021ZM47.5408 40.5752C47.1617 40.2031 46.9568 39.6883 46.9763 39.1571V39.1415C46.9568 38.6103 47.1617 38.0955 47.5408 37.7234C47.9199 37.3513 48.4381 37.1564 48.9681 37.1864C49.4559 37.1616 49.9352 37.3206 50.3116 37.6322L49.9211 38.2891C49.6402 38.0747 49.2978 37.9568 48.9447 37.9528C48.322 38.0033 47.8424 38.5239 47.8424 39.1493C47.8424 39.7747 48.322 40.2954 48.9447 40.3458C49.2978 40.3419 49.6402 40.2239 49.9211 40.0095L50.3116 40.6664C49.9352 40.978 49.4559 41.137 48.9681 41.1122C48.4381 41.1423 47.9199 40.9473 47.5408 40.5752ZM54.5841 39.1571V37.2881H53.7718V37.7417C53.4919 37.3811 53.0559 37.1774 52.6002 37.1943C51.5217 37.1943 50.6474 38.0696 50.6474 39.1493C50.6474 40.2291 51.5217 41.1044 52.6002 41.1044C53.0559 41.1212 53.4919 40.9175 53.7718 40.5569V41.0105H54.5841V39.1571ZM52.7304 38.0944C52.1169 38.0713 51.5975 38.5435 51.5614 39.1571C51.5406 39.4695 51.6511 39.7763 51.8662 40.0034C52.0813 40.2306 52.3813 40.3576 52.6939 40.3536C53.3079 40.3504 53.8067 39.8565 53.8166 39.2419C53.8265 38.6273 53.3439 38.1174 52.7304 38.0944ZM41.7585 37.2021C40.6801 37.2172 39.818 38.1048 39.8331 39.1845C39.8482 40.2642 40.7347 41.1273 41.8132 41.1122C42.3705 41.1318 42.9155 40.9453 43.3441 40.5882L42.9536 39.9861C42.6452 40.2337 42.2631 40.3713 41.8679 40.3771C41.3095 40.4252 40.8144 40.0196 40.7509 39.4621H43.5277V39.1493C43.5277 37.9763 42.8013 37.1943 41.7546 37.1943L41.7585 37.2021ZM42.4188 38.1869C42.2415 38.0168 42.004 37.9241 41.7585 37.9294H41.7429C41.2209 37.9115 40.7803 38.3144 40.7509 38.8365H42.7036C42.6985 38.5907 42.596 38.357 42.4188 38.1869ZM60.2796 38.1022C59.6661 38.0792 59.1467 38.5513 59.1105 39.1649C59.0898 39.4773 59.2003 39.7841 59.4154 40.0113C59.6304 40.2385 59.9305 40.3654 60.2431 40.3614C60.8571 40.3583 61.3559 39.8643 61.3658 39.2497C61.3757 38.6351 60.8931 38.1253 60.2796 38.1022ZM31.6825 39.165V37.2959H30.8702V37.7495C30.5903 37.389 30.1543 37.1852 29.6986 37.2021C28.6201 37.2021 27.7458 38.0774 27.7458 39.1571C27.7458 40.2369 28.6201 41.1122 29.6986 41.1122C30.1543 41.129 30.5903 40.9253 30.8702 40.5648V41.0183H31.6825V39.165ZM29.8286 38.1022C29.2151 38.0792 28.6956 38.5513 28.6595 39.1649C28.6388 39.4773 28.7493 39.7841 28.9644 40.0113C29.1794 40.2385 29.4795 40.3654 29.7921 40.3614C30.4061 40.3583 30.9049 39.8643 30.9148 39.2497C30.9247 38.6351 30.4421 38.1253 29.8286 38.1022ZM63.4847 40.4905C63.5354 40.4899 63.5858 40.4992 63.6331 40.5179C63.6779 40.5362 63.719 40.5627 63.7541 40.5961C63.7885 40.6298 63.8163 40.6695 63.8362 40.7134C63.8761 40.8057 63.8761 40.9104 63.8362 41.0027C63.8163 41.0465 63.7885 41.0863 63.7541 41.12C63.719 41.1534 63.6779 41.1799 63.6331 41.1982C63.5863 41.2189 63.5358 41.2295 63.4847 41.2295C63.3335 41.2283 63.1966 41.14 63.1332 41.0027C63.0937 40.9103 63.0937 40.8057 63.1332 40.7134C63.1531 40.6695 63.1809 40.6298 63.2152 40.5961C63.2503 40.5627 63.2914 40.5362 63.3363 40.5179C63.3835 40.4992 63.4339 40.4899 63.4847 40.4905ZM63.598 41.1278C63.5623 41.1435 63.5237 41.1515 63.4847 41.1513V41.1552C63.4455 41.1539 63.4069 41.1446 63.3714 41.1278C63.3364 41.1133 63.3046 41.0921 63.2777 41.0653C63.1764 40.9546 63.1764 40.7849 63.2777 40.6743C63.3045 40.6474 63.3363 40.6261 63.3714 40.6117C63.4073 40.5964 63.4458 40.5884 63.4847 40.5882C63.5237 40.5881 63.5622 40.5961 63.598 40.6117C63.6316 40.6266 63.6621 40.6479 63.6878 40.6743C63.789 40.7849 63.789 40.9546 63.6878 41.0653C63.662 41.0916 63.6316 41.1128 63.598 41.1278ZM63.508 40.686C63.5445 40.6842 63.5804 40.6953 63.6096 40.7173C63.6338 40.7374 63.6469 40.7679 63.6447 40.7994C63.6458 40.8256 63.6359 40.8512 63.6174 40.8698C63.5947 40.8903 63.5659 40.9027 63.5354 40.905L63.6486 41.034H63.5588L63.4533 40.905H63.4182V41.034H63.344V40.6899L63.508 40.686ZM63.4221 40.8463V40.7525L63.508 40.7759C63.5233 40.7714 63.5396 40.7714 63.5549 40.7759C63.5605 40.787 63.5605 40.8 63.5549 40.8111C63.5605 40.8222 63.5605 40.8352 63.5549 40.8463C63.5396 40.8509 63.5233 40.8509 63.508 40.8463H63.4221Z" fill="black"/>
<rect x="35.4238" y="8.81055" width="12.3022" height="22.1351" fill="#FF5F00"/>
<path d="M36.2044 19.8803C36.1998 15.5602 38.1801 11.4781 41.5744 8.81081C35.8099 4.2751 27.5317 4.93577 22.5577 10.3285C17.5836 15.7213 17.5836 24.0355 22.5577 29.4283C27.5317 34.821 35.8099 35.4817 41.5744 30.946C38.1812 28.2795 36.201 24.1991 36.2044 19.8803Z" fill="#EB001B"/>
<path d="M64.3245 19.8799C64.3244 25.2694 61.2507 30.1857 56.4088 32.5408C51.567 34.896 45.807 34.2765 41.5752 30.9455C44.9669 28.2768 46.9473 24.1969 46.9473 19.878C46.9473 15.559 44.9669 11.4791 41.5752 8.81038C45.807 5.4794 51.567 4.85994 56.4088 7.2151C61.2507 9.57025 64.3244 14.4865 64.3245 19.876V19.8799Z" fill="#F79E1B"/>
</svg>
