<svg width="84" height="58" viewBox="0 0 84 58" fill="none" xmlns="http://www.w3.org/2000/svg">
<rect x="0.5" y="0.5" width="83" height="57" rx="3.5" fill="white" stroke="#F3F3F3"/>
<path d="M37.2956 39.7781H31.7031L35.2011 19.4771H40.7933L37.2956 39.7781Z" fill="#15195A"/>
<path d="M57.5689 19.9737C56.4658 19.5629 54.7163 19.1094 52.5529 19.1094C47.0301 19.1094 43.141 21.8736 43.1172 25.8257C43.0713 28.7415 45.9017 30.361 48.0185 31.3332C50.1822 32.3267 50.9177 32.9751 50.9177 33.8607C50.8957 35.2207 49.1693 35.8476 47.5592 35.8476C45.3264 35.8476 44.1301 35.5244 42.312 34.7677L41.5756 34.4434L40.793 39.0005C42.1046 39.5614 44.5212 40.0591 47.0301 40.0809C52.8982 40.0809 56.7184 37.3595 56.7637 33.1479C56.786 30.8369 55.2915 29.0661 52.0694 27.6191C50.1134 26.6903 48.9155 26.0639 48.9155 25.1135C48.9384 24.2495 49.9287 23.3645 52.1367 23.3645C53.9548 23.3212 55.2906 23.7314 56.3025 24.1419L56.8084 24.3574L57.5689 19.9737Z" fill="#15195A"/>
<path fill-rule="evenodd" clip-rule="evenodd" d="M67.5796 19.4771H71.9054L76.4171 39.7778H71.239C71.239 39.7778 70.7322 37.4453 70.5717 36.7325H63.3914C63.1837 37.2722 62.2176 39.7778 62.2176 39.7778H56.3496L64.6565 21.1614C65.2321 19.8439 66.2456 19.4771 67.5796 19.4771ZM67.235 26.9061C67.235 26.9061 65.4628 31.4199 65.0022 32.5861H69.6507C69.4207 31.5711 68.3616 26.7118 68.3616 26.7118L67.9708 24.9625C67.8062 25.4129 67.5682 26.0322 67.4077 26.4499C67.2988 26.7331 67.2256 26.9236 67.235 26.9061Z" fill="#15195A"/>
<path fill-rule="evenodd" clip-rule="evenodd" d="M7.47193 19.4771H16.4697C17.6893 19.5198 18.6789 19.887 19.001 21.1835L20.9562 30.5101C20.9565 30.511 20.9568 30.5119 20.9571 30.5128L21.5556 33.3204L27.0325 19.4771H32.9461L24.1556 39.7565H18.2417L13.2572 22.1168C11.5373 21.173 9.57446 20.414 7.37988 19.8872L7.47193 19.4771Z" fill="#15195A"/>
</svg>
